<svg width="118" height="118" viewBox="0 0 118 118" fill="none" xmlns="http://www.w3.org/2000/svg">
<rect width="118" height="118" rx="16" fill="#E9DEFF"/>
<path d="M34.125 57.2802C31.85 57.2802 29.9271 56.494 28.3562 54.9215C26.7854 53.349 26 51.4241 26 49.1468C26 46.8695 26.7854 44.9446 28.3562 43.3721C29.9271 41.7996 31.85 41.0134 34.125 41.0134C36.4 41.0134 38.3229 41.7996 39.8938 43.3721C41.4646 44.9446 42.25 46.8695 42.25 49.1468C42.25 51.4241 41.4646 53.349 39.8938 54.9215C38.3229 56.494 36.4 57.2802 34.125 57.2802ZM48.75 44.2668C46.475 44.2668 44.5521 43.4805 42.9812 41.9081C41.4104 40.3356 40.625 38.4107 40.625 36.1334C40.625 33.856 41.4104 31.9311 42.9812 30.3587C44.5521 28.7862 46.475 28 48.75 28C51.025 28 52.9479 28.7862 54.5187 30.3587C56.0896 31.9311 56.875 33.856 56.875 36.1334C56.875 38.4107 56.0896 40.3356 54.5187 41.9081C52.9479 43.4805 51.025 44.2668 48.75 44.2668ZM68.25 44.2668C65.975 44.2668 64.0521 43.4805 62.4813 41.9081C60.9104 40.3356 60.125 38.4107 60.125 36.1334C60.125 33.856 60.9104 31.9311 62.4813 30.3587C64.0521 28.7862 65.975 28 68.25 28C70.525 28 72.4479 28.7862 74.0187 30.3587C75.5896 31.9311 76.375 33.856 76.375 36.1334C76.375 38.4107 75.5896 40.3356 74.0187 41.9081C72.4479 43.4805 70.525 44.2668 68.25 44.2668ZM82.875 57.2802C80.6 57.2802 78.6771 56.494 77.1063 54.9215C75.5354 53.349 74.75 51.4241 74.75 49.1468C74.75 46.8695 75.5354 44.9446 77.1063 43.3721C78.6771 41.7996 80.6 41.0134 82.875 41.0134C85.15 41.0134 87.0729 41.7996 88.6437 43.3721C90.2146 44.9446 91 46.8695 91 49.1468C91 51.4241 90.2146 53.349 88.6437 54.9215C87.0729 56.494 85.15 57.2802 82.875 57.2802ZM41.1125 89.8137C38.675 89.8137 36.6307 88.8778 34.9797 87.0061C33.3266 85.1365 32.5 82.9275 32.5 80.379C32.5 77.5594 33.462 75.0923 35.386 72.9776C37.3078 70.8629 39.2167 68.7754 41.1125 66.7149C42.6833 65.034 44.0375 63.2035 45.175 61.2233C46.3125 59.2452 47.6667 57.3886 49.2375 55.6535C50.4292 54.2437 51.8104 53.0779 53.3813 52.1562C54.9521 51.2344 56.6583 50.7735 58.5 50.7735C60.3417 50.7735 62.0479 51.2073 63.6187 52.0748C65.1896 52.9424 66.5708 54.0811 67.7625 55.4908C69.2792 57.226 70.6192 59.0966 71.7827 61.1029C72.9484 63.1091 74.3167 64.9798 75.8875 66.7149C77.7833 68.7754 79.6933 70.8629 81.6173 72.9776C83.5391 75.0923 84.5 77.5594 84.5 80.379C84.5 82.9275 83.6745 85.1365 82.0235 87.0061C80.3703 88.8778 78.325 89.8137 75.8875 89.8137C72.9625 89.8137 70.0646 89.5697 67.1938 89.0817C64.3229 88.5937 61.425 88.3497 58.5 88.3497C55.575 88.3497 52.6771 88.5937 49.8062 89.0817C46.9354 89.5697 44.0375 89.8137 41.1125 89.8137Z" fill="#565186"/>
</svg>
