<svg width="118" height="118" viewBox="0 0 118 118" fill="none" xmlns="http://www.w3.org/2000/svg">
<rect width="118" height="118" rx="16" fill="#E9DEFF"/>
<path d="M50.375 91C47.1792 91 44.4844 89.9031 42.2906 87.7094C40.0969 85.5156 39 82.8208 39 79.625C39 79.1375 39.0677 78.7583 39.2031 78.4875C39.3385 78.2167 39.325 78 39.1625 77.8375C39 77.675 38.7833 77.6615 38.5125 77.7969C38.2417 77.9323 37.8625 78 37.375 78C34.1792 78 31.4844 76.9031 29.2906 74.7094C27.0969 72.5156 26 69.8208 26 66.625C26 63.4292 27.0969 60.7344 29.2906 58.5406C31.4844 56.3469 34.1792 55.25 37.375 55.25C38.6208 55.25 39.7583 55.4125 40.7875 55.7375C41.8167 56.0625 42.7917 56.55 43.7125 57.2L57.2 43.7125C56.55 42.7917 56.0625 41.8167 55.7375 40.7875C55.4125 39.7583 55.25 38.6208 55.25 37.375C55.25 34.1792 56.3469 31.4844 58.5406 29.2906C60.7344 27.0969 63.4292 26 66.625 26C69.8208 26 72.5156 27.0969 74.7094 29.2906C76.9031 31.4844 78 34.1792 78 37.375C78 37.8625 77.9323 38.2417 77.7969 38.5125C77.6615 38.7833 77.675 39 77.8375 39.1625C78 39.325 78.2167 39.3385 78.4875 39.2031C78.7583 39.0677 79.1375 39 79.625 39C82.8208 39 85.5156 40.0969 87.7094 42.2906C89.9031 44.4844 91 47.1792 91 50.375C91 53.5708 89.9031 56.2656 87.7094 58.4594C85.5156 60.6531 82.8208 61.75 79.625 61.75C78.3792 61.75 77.2417 61.5875 76.2125 61.2625C75.1833 60.9375 74.2083 60.45 73.2875 59.8L59.8 73.2875C60.45 74.2083 60.9375 75.1833 61.2625 76.2125C61.5875 77.2417 61.75 78.3792 61.75 79.625C61.75 82.8208 60.6531 85.5156 58.4594 87.7094C56.2656 89.9031 53.5708 91 50.375 91Z" fill="#565186"/>
</svg>
