<svg width="118" height="118" viewBox="0 0 118 118" fill="none" xmlns="http://www.w3.org/2000/svg">
<rect width="118" height="118" rx="16" fill="#E9DEFF"/>
<path d="M29.4639 99.7424V60.5061L28.3433 59.3821C27.5961 58.5647 27.0188 57.6451 26.6113 56.6233C26.2038 55.6015 26 54.5797 26 53.558C26 52.4681 26.2038 51.4299 26.6113 50.4436C27.0188 49.4545 27.5961 48.5853 28.3433 47.836L41.6897 34.3485H57.9906L74.2915 18L82.6458 26.3786C85.4984 29.1715 87.604 32.3213 88.9624 35.828C90.3208 39.3375 91 42.9314 91 46.6098C91 50.2883 90.3208 53.8645 88.9624 57.3385C87.604 60.8126 85.4984 63.9801 82.6458 66.8411L74.2915 75.2197V99.7424H29.4639ZM37.6144 91.5682H66.1411V71.8478L76.8386 61.1191C78.8083 59.1437 80.3025 56.8781 81.3213 54.3223C82.3401 51.7692 82.8495 49.1984 82.8495 46.6098C82.8495 44.0213 82.3401 41.4669 81.3213 38.9465C80.3025 36.4261 78.8083 34.1782 76.8386 32.2027L74.2915 29.5461L61.3527 42.5227H45.0517L42.7085 44.8728L49.5345 51.7188C51.5042 53.6942 52.9984 55.9421 54.0172 58.4625C55.036 60.9829 55.5455 63.5373 55.5455 66.1259C55.5455 68.7144 55.036 71.2865 54.0172 73.8423C52.9984 76.3954 51.5042 78.6597 49.5345 80.6351L37.6144 68.6803V91.5682Z" fill="#565186"/>
</svg>
