<svg width="76" height="70" viewBox="0 0 76 70" fill="none" xmlns="http://www.w3.org/2000/svg">
<path d="M20.2223 0.579315C17.2629 2.04595 15.1677 6.91728 15.5343 11.422C16.2414 20.0123 21.7413 27.555 27.346 27.5812C36.0149 27.6335 37.3767 11.9719 29.4674 3.51259C27.1627 1.02454 25.277 0.0293255 22.8937 0.0293255C21.8199 0.0293255 20.9556 0.212656 20.2223 0.579315Z" fill="#7B58C2"/>
<path d="M48.6648 0.736439C46.8839 1.60071 44.1601 4.35065 42.8506 6.5768C38.4769 14.0671 39.3935 24.4645 44.6577 27.005C48.7172 28.9954 53.7194 26.0359 56.7837 19.8813C58.2765 16.8695 59.167 13.3862 59.167 10.4791C59.167 8.56724 58.4336 5.31968 57.6217 3.77448C55.867 0.3174 52.0957 -0.939718 48.6648 0.736439Z" fill="#7B58C2"/>
<path d="M65.5309 21.8717C63.2 22.736 61.4977 23.9146 59.4549 26.1145C54.4264 31.4835 53.3264 38.3976 56.993 41.6975C59.193 43.688 62.2048 43.7665 65.7928 41.9856C69.3023 40.2309 71.7903 37.6643 73.676 33.8929C75.7188 29.8335 75.5355 25.0145 73.257 22.8931C71.4499 21.217 68.4118 20.798 65.5309 21.8717Z" fill="#7B58C2"/>
<path d="M4.11552 25.3288C2.57031 25.8002 0.710825 27.7907 0.239406 29.4668C0.0298863 30.2263 -0.0486836 31.6406 0.0298863 33.4739C0.134646 35.8048 0.265596 36.6167 0.867965 38.0833C2.57031 42.169 5.42502 45.4165 8.75114 47.0665C10.4797 47.9307 11.0297 48.0617 12.5225 48.0617C13.9629 48.0617 14.5129 47.9307 15.5082 47.3546C17.7081 46.0713 18.8343 43.6618 18.8343 40.3619C18.8343 36.5119 17.0272 32.3477 14.0153 29.1787C11.9987 27.0312 10.2178 25.905 7.96544 25.3026C6.10596 24.8312 5.71311 24.8312 4.11552 25.3288Z" fill="#7B58C2"/>
<path d="M37.4291 35.5691C33.9459 36.0929 29.4412 38.8952 25.0937 43.2166C19.7771 48.5331 16.7653 53.2473 15.4296 58.3544C14.6439 61.3662 14.7224 63.0162 15.77 65.0066C16.7653 66.9447 18.7819 68.7256 20.458 69.197C21.139 69.3803 22.6318 69.4327 24.2032 69.3541C26.5079 69.2494 27.3722 69.066 31.4054 67.7304C35.4911 66.3685 36.2244 66.2113 38.2148 66.2113C40.1005 66.1852 40.8862 66.3423 43.4528 67.1804C49.2932 69.0922 50.7598 69.4327 53.3003 69.4327C55.3169 69.4327 55.8669 69.3279 56.993 68.778C58.6168 67.9661 60.3192 66.159 61.0787 64.509C61.7596 62.9638 61.7858 60.2924 61.1311 58.0401C58.1716 47.695 44.2909 34.5739 37.4291 35.5691ZM36.303 43.2427C37.3768 43.8189 38.372 44.2903 38.5291 44.2903C38.6601 44.2903 39.4981 43.8713 40.3624 43.3737C44.6314 40.8595 48.5075 41.9332 50.3932 46.1498C50.9955 47.5379 51.1003 47.9831 50.9693 49.2664C50.5503 53.2997 47.617 57.6996 42.5886 61.89C40.8338 63.3566 39.2886 64.1947 38.3982 64.1947C36.7482 64.1947 30.6197 58.8258 28.4198 55.4735C25.1984 50.5497 25.2508 46.2284 28.5507 43.3999C30.6459 41.619 33.1864 41.5666 36.303 43.2427Z" fill="#7B58C2"/>
</svg>
