<svg width="205" height="36" viewBox="0 0 205 36" fill="none" xmlns="http://www.w3.org/2000/svg">
<path d="M10.1616 2.76611C6.16772 7.05603 -0.290529 27.9909 0.984126 32.195C1.49399 33.6536 4.80809 35.6269 6.93251 35.6269C7.61233 35.6269 8.37712 34.5973 8.71703 33.2246C8.97196 31.9376 9.31187 30.479 9.48182 29.9642C9.65178 29.4494 11.6062 28.763 13.8156 28.4198C21.1237 27.4761 21.5486 27.5619 22.1434 30.9938C22.8232 34.5973 24.3528 35.3695 27.7519 33.9109C29.9613 32.9672 30.3012 32.3666 30.3012 29.4494C30.3012 27.5619 29.2815 23.1003 28.0918 19.4968C23.758 6.79863 20.3589 1.82232 15.1753 0.79274C12.8809 0.36375 12.1161 0.621143 10.1616 2.76611ZM17.9795 19.6684C19.849 24.3015 19.2542 25.3311 14.2405 25.3311C11.5213 25.3311 11.4363 25.2453 11.8612 22.4998C12.541 18.124 14.0706 14.8637 15.2603 15.2927C15.7701 15.4643 17.0448 17.4376 17.9795 19.6684Z" fill="#7B58C2"/>
<path d="M80.3828 2.95218C75.9012 7.67375 69.5236 27.8477 71.0749 32.0542C71.9368 34.2004 75.7289 36.1749 77.6249 35.4881C78.2282 35.2306 79.0039 33.6853 79.2624 32.0542C79.8657 29.0496 79.9519 29.0496 84.9506 28.4487C87.7084 28.1053 90.294 27.9336 90.6387 27.9336C91.0696 27.9336 91.8453 29.4788 92.4486 31.4533C93.3966 34.2862 94.086 34.973 95.7235 34.973C97.7058 34.973 101.239 32.3118 101.239 30.8524C101.239 27.676 97.1887 15.6575 94.2584 9.99161C89.3459 0.54847 84.8644 -1.68355 80.3828 2.95218ZM88.1394 19.5206C89.863 23.7271 89.863 23.8129 88.3117 24.6714C86.2433 25.7874 82.5374 25.7874 81.8479 24.6714C80.9861 23.3837 84.0025 15.2283 85.2091 15.2283C85.8986 15.2283 87.1913 17.1169 88.1394 19.5206Z" fill="#7B58C2"/>
<path d="M184.123 2.57875C180.332 7.02133 174.942 23.2237 174.942 30.0182C174.942 33.851 176.205 35.3319 179.659 35.5932C181.68 35.7674 182.186 35.3319 183.028 32.7186C183.954 29.9311 184.376 29.5827 188.587 28.7116C191.03 28.1889 193.557 27.9276 194.146 28.1889C194.652 28.3631 195.494 30.0182 195.999 31.9346C196.757 34.635 197.347 35.3319 198.779 35.3319C201.559 35.3319 204.423 32.8928 204.423 30.5409C204.423 25.1401 196.926 5.97602 193.641 2.84008C192.714 1.96898 190.693 1.09789 189.008 0.749451C186.566 0.401012 185.723 0.662342 184.123 2.57875ZM190.861 18.4327C193.809 23.5721 192.967 25.7499 187.997 25.7499C186.902 25.7499 185.723 25.3143 185.471 24.8788C184.797 23.7463 187.408 15.2967 188.419 15.2967C188.756 15.2967 189.851 16.6905 190.861 18.4327Z" fill="#7B58C2"/>
<path d="M47.684 3.15713C41.5534 5.04126 36.1999 9.66595 35.0773 14.0337C34.3002 17.1168 36.2862 24.2251 39.1357 28.079C45.0936 36.3007 58.4774 38.1848 65.3852 31.8473C67.2848 30.1345 67.5439 29.535 66.6804 28.5073C65.2988 26.8801 63.3992 26.8801 59.3409 28.5929C54.9372 30.3914 49.8427 29.4493 46.6479 26.3662C44.7482 24.3964 44.2301 23.1118 44.2301 20.1143C44.2301 13.2629 49.5837 10.0942 59.2545 11.2931C63.3992 11.807 64.09 11.7214 64.8671 10.1798C66.594 7.09668 65.9896 4.09919 63.5719 3.24277C61.0678 2.21507 50.8789 2.21507 47.684 3.15713Z" fill="#7B58C2"/>
<path d="M143.015 4.56256C137.867 6.34494 137.169 7.27857 137.169 12.456C137.169 17.5485 139.351 28.6671 141.096 32.826C142.143 35.2874 142.753 35.6269 145.545 35.6269H148.774L148.163 32.2319C146.941 24.7629 151.653 23.0654 156.801 29.0915C162.472 35.7118 166.049 36.7303 169.539 32.5714C170.586 31.3832 170.586 31.0436 169.626 30.7041C168.928 30.5344 167.096 29.1764 165.438 27.8184C161.861 24.7629 161.599 22.0469 164.653 18.4821C167.27 15.4266 167.358 13.3896 165.089 9.65508C161.512 4.13818 151.217 1.76167 143.015 4.56256ZM156.452 10.1643C158.807 11.4375 158.546 14.8325 155.841 16.8695C153.311 18.8216 151.042 19.0762 148.425 17.8031C146.243 16.6148 146.156 11.4375 148.337 10.2492C150.257 9.14582 154.27 9.06095 156.452 10.1643Z" fill="#7B58C2"/>
<path d="M109.171 5.58717C107.546 6.26604 105.92 7.28433 105.578 7.87834C104.551 9.40578 104.808 22.8134 105.835 28.4988C107.033 34.5238 107.802 35.6269 110.882 35.6269C113.021 35.6269 113.278 35.2875 113.706 31.6386C114.219 27.1411 115.844 25.444 119.865 25.444C123.715 25.444 131.244 21.4556 132.698 18.6553C135.094 14.073 131.843 8.30263 125.255 5.50231C121.234 3.89001 113.107 3.89001 109.171 5.58717ZM123.886 11.6121C128.592 15.7701 120.892 22.1345 115.673 18.4007C113.877 17.043 113.62 13.3093 115.16 11.4424C116.614 9.74522 121.919 9.83007 123.886 11.6121Z" fill="#7B58C2"/>
</svg>
